<svg xmlns="http://www.w3.org/2000/svg" viewBox="0 0 64 64" role="img" aria-label="Lexiona">
  <defs>
    <linearGradient id="cover" x1="14" y1="8" x2="50" y2="56" gradientUnits="userSpaceOnUse">
      <stop offset="0" stop-color="#42b883"/>
      <stop offset="1" stop-color="#0f5f43"/>
    </linearGradient>
    <linearGradient id="page" x1="24" y1="15" x2="44" y2="49" gradientUnits="userSpaceOnUse">
      <stop offset="0" stop-color="#fffdf4"/>
      <stop offset="1" stop-color="#dff4e9"/>
    </linearGradient>
  </defs>

  <rect width="64" height="64" rx="16" fill="#0b3022"/>
  <path d="M19 13h27a5 5 0 0 1 5 5v30a5 5 0 0 1-5 5H19a6 6 0 0 1-6-6V19a6 6 0 0 1 6-6Z" fill="url(#cover)"/>
  <path d="M24 15h21a4 4 0 0 1 4 4v28a4 4 0 0 1-4 4H24V15Z" fill="url(#page)"/>
  <path d="M24 15v36" stroke="#0b6b49" stroke-width="2.5" stroke-linecap="round"/>

  <g fill="none" stroke="#b9ead2" stroke-width="2.6" stroke-linecap="round">
    <path d="M17 21h8"/>
    <path d="M17 29h8"/>
    <path d="M17 37h8"/>
    <path d="M17 45h8"/>
  </g>

  <g fill="none" stroke="#23845d" stroke-width="2" stroke-linecap="round">
    <path d="M32 25h9"/>
    <path d="M32 32h11"/>
    <path d="M32 39h7"/>
  </g>

  <path d="M41 21c1.7 3.7.7 8-2.6 10.8-3.1 2.7-7.4 3.2-10.8 1.5 1.3-3.8 4.1-7 7.8-8.8 1.8-.9 3.7-1.4 5.6-1.5Z" fill="#2e9168"/>
  <path d="M30 33c3.6-1.2 6.9-3.8 9.8-7.8" fill="none" stroke="#fffdf4" stroke-width="2" stroke-linecap="round"/>
</svg>
